<?xml version="1.0" encoding="utf-8"?>
<!-- Generator: Adobe Illustrator 16.0.3, SVG Export Plug-In . SVG Version: 6.00 Build 0)  -->
<!DOCTYPE svg PUBLIC "-//W3C//DTD SVG 1.1//EN" "http://www.w3.org/Graphics/SVG/1.1/DTD/svg11.dtd">
<svg version="1.1" id="Layer_1" xmlns="http://www.w3.org/2000/svg" xmlns:xlink="http://www.w3.org/1999/xlink" x="0px" y="0px"
	 width="660px" height="518px" viewBox="0 0 660 518" enable-background="new 0 0 660 518" xml:space="preserve">
<path fill-rule="evenodd" clip-rule="evenodd" fill="#FAB224" d="M528,58c0,0,3.162,27.97,4,52c0.632,18.127-1,34-1,34
	s13.174-16.846,26-27c11.04-8.74,22-11,22-11s3.827,202.233-6,328c-3.359,42.993-16,80-16,80s18.466-2.522,37-2
	c16.89,0.476,34,2,34,2s-17.244-51.458-18-219c-0.43-95.296-1-189-1-189s9.066,0.965,24,13c11.887,9.579,23,25,23,25
	s-1.096-27.444,0-51c0.881-18.936,4-35,4-35s-32.67,6-66,6C561.336,64,528,58,528,58z"/>
<path fill-rule="evenodd" clip-rule="evenodd" fill="#FAB224" d="M359,58c4.693,2.206,17.604,198.403,7,346
	c-4.358,60.663-19,109-19,109s14.469-1,29-1c12.868,0,26,1,26,1s-4.011-60.334-6-124c-2.01-64.331-2-132-2-132s21.818-19.003,38-31
	c12.271-9.097,20-12,20-12s4.901,59.916,2,167c-2.299,84.882-19,131-19,131s16.078-1.267,31-1c12.936,0.231,25,2,25,2
	s-7.938-97.792-10-234c-2.136-141.148,5-218,5-218s-12.683,0.513-25,0c-11.666-0.486-23-2-23-2s9.223,39.911,13,71
	c2.399,19.749,0,36,0,36s-14.592,15.85-28,29c-12.565,12.324-27,21-27,21s-1.977-31.13-1-67c1.379-50.641,8-89,8-89
	s-10.836,0.507-22,0C370.169,59.508,359,58,359,58z"/>
<path fill-rule="evenodd" clip-rule="evenodd" fill="#FAB224" d="M392,0c0.355,1.364,60.468,9.728,57,10
	c-2.856,0.224-26.337,30.805-25,32L392,0z"/>
<path fill="#FAB224" d="M299,438C239.572,83.063,284,57,284,57l-95,11c0,0,20.224,4.432-5,285
	c-13.943,155.09-32.646,158.92-33.929,158.999c1.116-0.017,16.603-0.235,31.929,0.001c16.576,0.255,33,1,33,1s-2.739-43.004-3-84
	c-0.238-37.333,2-73,2-73s4.506-2.204,27-4c13.054-1.042,18,3,18,3s6.755,33.434,7,79c0.206,38.398-8,78-8,78s14.433-1,30-1
	c18.223,0,38,1,38,1S305.609,477.474,299,438z M217,316c7.993-87.031,2.409-156.391,18-156c14.951,0.375,8.933,41.704,20,155
	C255.175,316.794,217,316,217,316z"/>
<path fill-rule="evenodd" clip-rule="evenodd" fill="#FAB224" d="M93,51c0,0-18.912,4.652-39,7c-18.331,2.143-39,2-39,2
	s28.109-7.932,16,335C27.898,482.86,0,518,0,518s35.098-4.706,69-6c31.51-1.203,62,1,62,1s-5.5-44.996-6-90c-0.5-44.996,4-90,4-90
	s-23.213,4.412-31,74c-6.418,57.356-30,57-30,57s-7.32-177.45,2-317C76.245,53.496,93,51,93,51z"/>
</svg>
